# xmcd
#
# Track frame offsets: 
#        150
#        15847
#        31334
#        49129
#        63728
#        85335
#        104695
#        120617
#        134962
#        161599
#        178628
#        208781
#        224674
#        252143
#        269070
#        283993
#        303220
#        330715
#
# Disc length: 4747 seconds
#
# Revision: 2
# Processed by: cddbd v1.4PL0 Copyright (c) Steve Scherf et al.
# Submitted via: ExactAudioCopy v0.95a3
#
DISCID=1d128912
DTITLE=KOTO - KOTO
DYEAR=2002
DGENRE=Electronic
TTITLE0=The force
TTITLE1=Oxygene IV
TTITLE2=The captain of the heart
TTITLE3=Crockett's theme
TTITLE4=Trance europe express
TTITLE5=Jemes bonf theme
TTITLE6=Wonderful land
TTITLE7=Eye of the tiger
TTITLE8=Acknowledge
TTITLE9=Pulsar
TTITLE10=Mind machine
TTITLE11=I like chopin
TTITLE12=Time
TTITLE13=Tender force
TTITLE14=Moonlight shadow
TTITLE15=Epic saga
TTITLE16=Visitors
TTITLE17=Plain
EXTD=
EXTT0=
EXTT1=
EXTT2=
EXTT3=
EXTT4=
EXTT5=
EXTT6=
EXTT7=
EXTT8=
EXTT9=
EXTT10=
EXTT11=
EXTT12=
EXTT13=
EXTT14=
EXTT15=
EXTT16=
EXTT17=
PLAYORDER=
